<?xml version="1.0" encoding="utf-8"?>
<!-- Generator: Adobe Illustrator 26.1.0, SVG Export Plug-In . SVG Version: 6.00 Build 0)  -->
<svg version="1.1" id="Layer_1" xmlns="http://www.w3.org/2000/svg" xmlns:xlink="http://www.w3.org/1999/xlink" x="0px" y="0px"
	 viewBox="0 0 48.8 50" style="enable-background:new 0 0 48.8 50;" xml:space="preserve">
<style type="text/css">
	.st0{fill-rule:evenodd;clip-rule:evenodd;}
</style>
<path class="st0" d="M20.9,29.1l15.3-2.2c0.7-0.1,1.4,0.4,1.5,1.1l2.2,15.9c0.1,0.7-0.4,1.4-1.1,1.5L5.9,50
	c-0.7,0.1-1.4-0.4-1.5-1.1L0,16.8c-0.1-0.7,0.4-1.4,1.1-1.5l15.7-2.2c0.7-0.1,1.4,0.4,1.5,1.1l2,14.4C20.3,28.9,20.6,29.1,20.9,29.1
	z"/>
<path class="st0" d="M47.9,4c0.7,0.2,1.1,0.9,0.9,1.6l-4,15.2c-0.2,0.7-0.9,1.1-1.6,0.9l-15-4c-0.7-0.2-1.1-0.9-0.9-1.6L31.3,1
	c0.2-0.7,0.9-1.1,1.6-0.9L47.9,4z"/>
</svg>
